<?xml version="1.0" encoding="UTF-8"?><svg id="Calque_2" xmlns="http://www.w3.org/2000/svg" viewBox="0 0 207.78 155.32"><defs><style>.cls-1{fill:#ffde59;}.cls-1,.cls-2{stroke-width:0px;}.cls-2{fill:#fff;}</style></defs><g id="Layer_1"><path class="cls-2" d="M195.17,79.76c-.02-.15-.07-.28-.1-.43l-19.73-58.45,4.5-.55c5.59-.7,9.56-5.8,8.85-11.39-.68-5.59-5.8-9.57-11.37-8.85l-62.77,7.8c-2.2-3.24-5.92-5.37-10.12-5.37-5.27,0-9.77,3.37-11.47,8.07L27.93,18.68c-5.57.7-9.56,5.8-8.85,11.39.63,5.15,5.05,8.94,10.11,8.94.43,0,.85-.03,1.28-.08l2.63-.33-19.46,57.66c-.05.15-.1.3-.12.43H0l.28,3.7c.92,12.07,11.11,21.51,23.18,21.51h35.25c12.09,0,22.26-9.44,23.18-21.49l.28-3.72h-12.59c-.03-.13-.07-.28-.12-.43l-20.16-59.68,42.91-5.34v99.64h-22.36c-6.75,0-12.22,5.49-12.22,12.22s5.47,12.22,12.22,12.22h69.17c6.75,0,12.24-5.49,12.24-12.22s-5.49-12.22-12.24-12.22h-22.36V28.18l41.59-5.17-19.01,56.31c-.05.15-.1.28-.12.43h-13.52l.28,3.7c.92,12.06,11.11,21.49,23.18,21.49h35.25c12.09,0,22.26-9.44,23.18-21.49l.28-3.7h-12.61ZM74.31,103.57c-2.13,6.7-8.5,11.44-15.59,11.44H23.46c-7.09,0-13.44-4.74-15.59-11.44h66.44ZM63.2,96.69H19.89l19.91-58.93,3.37-.42,20.03,59.35ZM139.02,136.97c3.39,0,6.12,2.75,6.12,6.12s-2.74,6.1-6.12,6.1h-69.17c-3.37,0-6.12-2.74-6.12-6.1s2.75-6.12,6.12-6.12h69.17ZM116.66,22.03l-3.05.38-3.05.38v108.07h-12.22V24.31l-3.07.38-3.05.38-62.52,7.77c-1.07.13-2.13-.15-3-.83-.87-.67-1.42-1.63-1.55-2.72-.13-1.07.15-2.13.83-3,.67-.87,1.63-1.42,2.72-1.55l63.52-7.92,3.05-.37,3.07-.38v-1.33c0-.62.12-1.22.3-1.78.43-1.43,1.38-2.63,2.63-3.42.93-.57,2-.9,3.17-.9.62,0,1.22.12,1.78.3,1.43.43,2.65,1.38,3.42,2.65.53.87.85,1.87.88,2.97l3.02-.38,3.07-.38,61.47-7.65c.17-.02.33-.03.5-.03,2.03,0,3.8,1.52,4.07,3.59.13,1.08-.17,2.15-.85,3.02-.67.87-1.63,1.42-2.7,1.55l-62.43,7.77ZM164.94,22.18l4.25-.53,19.61,58.11h-43.31l19.44-57.58ZM184.31,98.07h-35.25c-7.09,0-13.44-4.74-15.59-11.42h66.44c-2.13,6.69-8.5,11.42-15.59,11.42Z"/><path class="cls-1" d="M145.14,143.09c0,3.37-2.74,6.1-6.12,6.1h-69.17c-3.37,0-6.12-2.74-6.12-6.1s2.75-6.12,6.12-6.12h69.17c3.39,0,6.12,2.75,6.12,6.12Z"/><path class="cls-1" d="M199.91,86.65c-2.13,6.69-8.5,11.42-15.59,11.42h-35.25c-7.09,0-13.44-4.74-15.59-11.42h66.44Z"/><polygon class="cls-1" points="188.8 79.76 145.49 79.76 164.94 22.18 169.19 21.65 188.8 79.76"/><path class="cls-1" d="M181.8,12.71c-.67.87-1.63,1.42-2.7,1.55l-62.43,7.77-3.05.38-3.05.38v108.07h-12.22V24.31l-3.07.38-3.05.38-62.52,7.77c-1.07.13-2.13-.15-3-.83-.87-.67-1.42-1.63-1.55-2.72-.13-1.07.15-2.13.83-3,.67-.87,1.63-1.42,2.72-1.55l63.52-7.92,3.05-.37,3.07-.38v-1.33c0-.62.12-1.22.3-1.78.43-1.43,1.38-2.63,2.63-3.42.93-.57,2-.9,3.17-.9.62,0,1.22.12,1.78.3,1.43.43,2.65,1.38,3.42,2.65.53.87.85,1.87.88,2.97l3.02-.38,3.07-.38,61.47-7.65c.17-.02.33-.03.5-.03,2.03,0,3.8,1.52,4.07,3.59.13,1.08-.17,2.15-.85,3.02Z"/><path class="cls-1" d="M74.31,103.57c-2.13,6.7-8.5,11.44-15.59,11.44H23.46c-7.09,0-13.44-4.74-15.59-11.44h66.44Z"/><polygon class="cls-1" points="63.2 96.69 19.89 96.69 39.8 37.75 43.17 37.34 63.2 96.69"/></g></svg>