<svg width="72" height="61" viewBox="0 0 72 61" fill="#7C7C7C" xmlns="http://www.w3.org/2000/svg">
<path d="M70.4867 20.4216L70.4855 20.4516V20.4816C70.4855 26.3826 67.1647 32.7643 62.138 38.9857C57.1442 45.1664 50.6428 50.9739 44.666 55.6977L44.665 55.6986C42.2492 57.6113 39.1813 58.6692 36 58.6692C32.8187 58.6692 29.7508 57.6113 27.335 55.6986L27.334 55.6977C21.3572 50.9739 14.8558 45.1664 9.86202 38.9857C4.83532 32.7643 1.51452 26.3826 1.51452 20.4816V20.4516L1.51332 20.4216C1.3272 15.7742 3.09905 11.229 6.47181 7.78224C9.83819 4.34196 14.5274 2.27702 19.5263 2.06202C22.6413 2.11454 25.6824 2.93727 28.3443 4.44214C31.0176 5.95345 33.2091 8.09627 34.7066 10.6456L36 12.8473L37.2934 10.6456C38.7909 8.09627 40.9824 5.95345 43.6557 4.44214C46.3176 2.93727 49.3587 2.11454 52.4737 2.06202C57.4726 2.27702 62.1618 4.34196 65.5282 7.78224C68.9009 11.229 70.6728 15.7742 70.4867 20.4216Z" fill="#7C7C7C" stroke="#7C7C7C" stroke-width="3"/>
</svg>
