<?xml version="1.0" encoding="UTF-8"?><svg id="Calque_2" xmlns="http://www.w3.org/2000/svg" viewBox="0 0 245.85 293.24"><defs><style>.cls-1{fill:none;stroke:#12486b;stroke-miterlimit:10;stroke-width:8px;}.cls-2{fill:#12486b;stroke-width:0px;}</style></defs><g id="Layer_1"><circle class="cls-2" cx="123.05" cy="95.37" r="48.79"/><path class="cls-2" d="M206.89,203.25c-4.73-30.43-31.05-53.71-62.8-53.71h-42.07c-31.75,0-58.07,23.29-62.8,53.71h167.68Z"/></g><g id="BG"><path class="cls-1" d="M182.82,4l54.25,53.12c-6.81,11.54-14.69,29.23-12.43,49.73,2.42,22,14.65,30.2,16.89,51.07,2.38,22.18-8.54,39.89-18.08,55.38-29.52,47.9-79.17,68.34-100.58,75.72-23.22-8.32-67.47-28.22-97.12-72.54-11.86-17.72-21.36-31.97-21.47-51.99-.16-28.92,19.46-43.31,16.13-72.37-1.81-15.78-9.46-27.8-15.03-34.99L60.76,4h122.05Z"/></g></svg>