<svg width="663" height="502" viewBox="0 0 663 502" fill="none" xmlns="http://www.w3.org/2000/svg">
<g clip-path="url(#clip0_610_9547)">
<path d="M66.7398 267.82L67.0298 267.64L66.7198 267.81C65.2698 268.57 63.8998 269.41 62.5898 270.4L66.7498 267.85V267.83L66.7398 267.82Z" fill="#82BFAB"/>
<path d="M272.399 344.12C264.269 337.5 256.599 330.15 249.539 322.07L166.699 373.36L195.939 391.47L203.949 386.51C205.729 385.09 207.669 383.83 209.799 382.88L272.399 344.11V344.12Z" fill="#FFDE59"/>
<path d="M219.33 275.19C214.92 265.49 211.35 255.59 208.69 245.56L96.4198 315.07L93.0298 317.15L92.0898 317.75L93.0898 317.2C99.5198 325.33 106.81 332.9 114.97 339.78L119.41 337.03L127.59 331.98L219.31 275.2L219.33 275.19Z" fill="#FFDE59"/>
<path d="M202.85 183.56L290.05 129.58L290.09 129.65L327.65 106.42L329.05 105.54L331.31 103.17C329.05 100.43 327.96 96.95 328.5 93.47L328.63 92.9C328.92 91.5 329.39 90.13 330.17 88.84L331.31 87.64C335.18 82.95 341.83 81.53 347.19 84.7L347.58 84.94L454.86 151.94L476.4 165.4C482.49 169.65 490.24 171.42 498.02 169.62C512.64 166.23 521.74 151.64 518.37 137.05C516.64 129.57 511.97 123.6 505.9 119.95L505.14 119.48L370.74 35.54L370.67 35.61L370.34 35.39C357.81 27.62 344.68 21.69 331.32 17.16C298.28 5.93 263.43 4.14 230.47 11.25C222.74 12.89 215.15 15.01 207.7 17.61C201.01 19.95 194.46 22.68 188.04 25.77C174.58 28.51 160.12 26.37 147.52 18.58L117.53 0L0 189.85L27.23 206.7L44.17 217.19C52.91 225.07 58.74 235.32 61.22 246.33L61.71 248.94C62.45 252.93 63.48 256.85 64.55 260.77C65.2 263.14 65.97 265.48 66.72 267.81L67.03 267.64L202.85 183.56Z" fill="#FFDE59"/>
<path d="M545.08 0L515.1 18.56C502.49 26.35 488.04 28.48 474.58 25.75C468.18 22.67 461.62 19.93 454.92 17.59C447.48 14.99 439.87 12.87 432.18 11.23C399.2 4.12 364.35 5.9 331.3 17.14C344.67 21.68 357.8 27.61 370.32 35.37L370.65 35.59L370.72 35.52L505.12 119.46L505.88 119.93C511.95 123.58 516.62 129.56 518.35 137.03C521.73 151.62 512.62 166.21 498 169.6C490.22 171.4 482.46 169.63 476.38 165.38L454.84 151.92L347.56 84.92L347.17 84.68C341.81 81.51 335.16 82.93 331.29 87.62L332.44 88.82C335.3 93.49 334.59 99.16 331.29 103.15L329.03 105.52L327.63 106.4L290.07 129.63L290.03 129.56L202.83 183.54L67.0099 267.62L66.7199 267.82L62.5599 270.37C55.8099 275.51 51.3799 283.53 51.3799 292.69C51.3799 308.23 63.9599 320.81 79.4999 320.81C84.0399 320.81 88.2799 319.62 92.0599 317.73L92.9999 317.13L96.3899 315.05L208.66 245.54C211.32 255.57 214.89 265.47 219.3 275.17L127.58 331.95L119.4 337C113.54 342.16 109.74 349.62 109.74 358.04C109.74 373.58 122.34 386.16 137.88 386.16C145.28 386.16 151.99 383.24 157.01 378.54L157.41 379.09L166.68 373.34L249.52 322.05C256.59 330.13 264.25 337.48 272.38 344.1L209.78 382.87C207.65 383.81 205.71 385.08 203.93 386.5C197.43 391.6 193.19 399.43 193.19 408.31C193.19 423.74 205.69 436.21 221.13 436.21C229.22 436.21 236.46 432.73 241.56 427.22L242.4 428.3L249.05 424.18L302.04 391.36L317.94 381.51V367.36L317.81 364.68L317.94 362C319.3 347.81 331.25 336.71 345.8 336.71C361.13 336.73 373.58 349.09 373.74 364.41V364.97L373.72 399.55V448.8L404.49 429.75V426.03L404.45 425.75L404.49 425.48V395.7L404.53 352.99V323.52L404.46 322.19L404.54 320.84C404.85 313.91 407.72 307.64 412.2 302.95C417.29 297.63 424.41 294.31 432.37 294.29C440.31 294.31 447.45 297.63 452.53 302.95C457.32 307.97 460.26 314.73 460.26 322.21L460.21 323.56L460.34 323.54V395.39L491.1 376.33V344.44L491.12 304.8V304.71L491.08 303.71L491.26 301.1V297.67H491.8C493.7 289.19 499.44 282.15 507.14 278.52C510.75 276.8 514.77 275.77 519.01 275.77C532.37 275.79 543.48 285.16 546.23 297.67H546.76V302.01L546.88 303.14L546.95 303.74L546.88 305.02V340.4C567.8 322.95 583.36 300.92 592.84 276.68C596.36 267.69 599.04 258.39 600.88 248.93L601.35 246.32C603.85 235.3 609.67 225.06 618.42 217.18L635.35 206.69L662.57 189.84L545.08 0Z" fill="#12486B"/>
<path d="M460.361 323.55L460.231 323.57L460.281 322.22C460.281 314.74 457.341 307.98 452.551 302.96C447.471 297.64 440.331 294.32 432.391 294.3C424.441 294.32 417.311 297.64 412.221 302.96C407.741 307.65 404.871 313.92 404.561 320.85L404.481 322.2L404.561 323.53V331.01L404.551 353L404.511 395.71V425.49L404.471 425.76L404.511 426.04V429.76L404.851 429.54C406.731 443.14 418.241 453.65 432.351 453.65C446.461 453.65 458.141 442.98 459.871 429.25H460.111V426.99L460.241 425.77L460.111 424.55V395.53L460.341 395.41V351.35L460.351 323.56L460.361 323.55Z" fill="#FFDE59"/>
<path d="M373.78 364.98V364.42C373.63 349.1 361.17 336.74 345.84 336.72C331.29 336.72 319.34 347.83 317.98 362.01L317.85 364.69L317.98 367.37V401.21L302.08 391.36L249.09 424.18L278.32 442.27L286.33 437.31L286.94 436.94L317.97 417.72V483.28L317.96 483.35L319.41 482.45C322.97 493.72 333.4 501.93 345.86 501.93C360.05 501.93 371.64 491.28 373.38 477.55H373.62V475.29L373.75 474.07L373.62 472.85V448.9L373.77 448.79V399.54L373.81 364.96L373.78 364.98Z" fill="#FFDE59"/>
<path d="M546.979 303.75L546.909 303.15L546.789 302.02V297.68H546.259C543.509 285.17 532.399 275.8 519.039 275.78C514.789 275.78 510.779 276.82 507.169 278.53C499.469 282.16 493.729 289.2 491.829 297.68H491.289V301.11L491.109 303.72L491.149 304.72V304.81L491.129 344.45V376.34L491.299 376.23V380.73L491.179 381.9L491.299 383.09V385.39H491.539C493.259 399.12 504.849 409.79 519.049 409.79C533.249 409.79 544.859 399.12 546.559 385.39H546.799V383.13L546.919 381.91L546.799 380.71V340.5L546.919 340.41V305.03L546.989 303.75H546.979Z" fill="#FFDE59"/>
<path d="M317.95 437.4V417.74L286.92 436.96L286.31 437.33C278.97 442.36 274.16 450.78 274.16 460.33C274.16 475.75 286.65 488.25 302.07 488.25C307.96 488.25 313.41 486.41 317.93 483.31V450.5L317.94 437.41L317.95 437.4Z" fill="#12486B"/>
</g>
<defs>
<clipPath id="clip0_610_9547">
<rect width="662.6" height="501.95" fill="white"/>
</clipPath>
</defs>
</svg>
