<?xml version="1.0" encoding="UTF-8"?><svg id="Calque_2" xmlns="http://www.w3.org/2000/svg" viewBox="0 0 662.6 501.95"><defs><style>.cls-1{fill:#82bfab;}.cls-1,.cls-2,.cls-3,.cls-4{stroke-width:0px;}.cls-2{fill:#ffde59;}.cls-3{fill:none;}.cls-4{fill:#fff;}</style></defs><g id="Object"><path class="cls-3" d="M328.63,92.91l-.13.57c-.54,3.48.55,6.97,2.81,9.7,3.3-3.99,4.01-9.67,1.15-14.33l-1.15-1.2-1.14,1.2c-.77,1.29-1.25,2.66-1.54,4.06Z"/><polygon class="cls-3" points="66.74 267.84 67.03 267.64 66.74 267.82 66.74 267.84"/><polygon class="cls-3" points="317.98 381.52 302.07 391.37 317.98 401.22 317.98 381.52"/><path class="cls-1" d="M66.74,267.82l.29-.18-.31.17c-1.45.76-2.82,1.6-4.13,2.59l4.16-2.55v-.02Z"/><path class="cls-2" d="M272.4,344.12c-8.13-6.62-15.8-13.97-22.86-22.05l-82.84,51.29,29.24,18.11,8.01-4.96c1.78-1.42,3.72-2.68,5.85-3.63l62.6-38.77Z"/><path class="cls-2" d="M219.33,275.19c-4.41-9.7-7.98-19.6-10.64-29.63l-112.27,69.51-3.39,2.08-.94.6,1-.55c6.43,8.13,13.72,15.7,21.88,22.58l4.44-2.75,8.18-5.05,91.72-56.78Z"/><path class="cls-2" d="M202.85,183.56l87.2-53.98.04.07,37.56-23.23,1.4-.88,2.26-2.37c-2.26-2.74-3.35-6.22-2.81-9.7l.13-.57c.29-1.4.76-2.77,1.54-4.06l1.14-1.2c3.87-4.69,10.52-6.11,15.88-2.94l.39.24,107.28,67,21.54,13.46c6.09,4.25,13.84,6.02,21.62,4.22,14.62-3.39,23.72-17.98,20.35-32.57-1.73-7.48-6.4-13.45-12.47-17.1l-.76-.47-134.4-83.94-.07.07-.33-.22c-12.53-7.77-25.66-13.7-39.02-18.23-33.04-11.23-67.89-13.02-100.85-5.91-7.73,1.64-15.32,3.76-22.77,6.36-6.69,2.34-13.24,5.07-19.66,8.16-13.46,2.74-27.92.6-40.52-7.19L117.53,0,0,189.85l27.23,16.85,16.94,10.49c8.74,7.88,14.57,18.13,17.05,29.14l.49,2.61c.74,3.99,1.77,7.91,2.84,11.83.65,2.37,1.42,4.71,2.17,7.04l.31-.17,135.82-84.08Z"/><path class="cls-4" d="M545.08,0l-29.98,18.56c-12.61,7.79-27.06,9.92-40.52,7.19-6.4-3.08-12.96-5.82-19.66-8.16-7.44-2.6-15.05-4.72-22.74-6.36-32.98-7.11-67.83-5.33-100.88,5.91,13.37,4.54,26.5,10.47,39.02,18.23l.33.22.07-.07,134.4,83.94.76.47c6.07,3.65,10.74,9.63,12.47,17.1,3.38,14.59-5.73,29.18-20.35,32.57-7.78,1.8-15.54.03-21.62-4.22l-21.54-13.46-107.28-67-.39-.24c-5.36-3.17-12.01-1.75-15.88,2.94l1.15,1.2c2.86,4.67,2.15,10.34-1.15,14.33l-2.26,2.37-1.4.88-37.56,23.23-.04-.07-87.2,53.98-135.82,84.08-.29.2-4.16,2.55c-6.75,5.14-11.18,13.16-11.18,22.32,0,15.54,12.58,28.12,28.12,28.12,4.54,0,8.78-1.19,12.56-3.08l.94-.6,3.39-2.08,112.27-69.51c2.66,10.03,6.23,19.93,10.64,29.63l-91.72,56.78-8.18,5.05c-5.86,5.16-9.66,12.62-9.66,21.04,0,15.54,12.6,28.12,28.14,28.12,7.4,0,14.11-2.92,19.13-7.62l.4.55,9.27-5.75,82.84-51.29c7.07,8.08,14.73,15.43,22.86,22.05l-62.6,38.77c-2.13.94-4.07,2.21-5.85,3.63-6.5,5.1-10.74,12.93-10.74,21.81,0,15.43,12.5,27.9,27.94,27.9,8.09,0,15.33-3.48,20.43-8.99l.84,1.08,6.65-4.12,52.99-32.82,15.9-9.85v-14.15l-.13-2.68.13-2.68c1.36-14.19,13.31-25.29,27.86-25.29,15.33.02,27.78,12.38,27.94,27.7v.56l-.02,34.58v49.25s30.77-19.05,30.77-19.05v-3.72l-.04-.28.04-.27v-29.78l.04-42.71v-29.47s-.07-1.33-.07-1.33l.08-1.35c.31-6.93,3.18-13.2,7.66-17.89,5.09-5.32,12.21-8.64,20.17-8.66,7.94.02,15.08,3.34,20.16,8.66,4.79,5.02,7.73,11.78,7.73,19.26l-.05,1.35.13-.02v71.85s30.76-19.06,30.76-19.06v-31.89l.02-39.64v-.09l-.04-1,.18-2.61v-3.43h.54c1.9-8.48,7.64-15.52,15.34-19.15,3.61-1.72,7.63-2.75,11.87-2.75,13.36.02,24.47,9.39,27.22,21.9h.53v4.34l.12,1.13.07.6-.07,1.28v35.38c20.92-17.45,36.48-39.48,45.96-63.72,3.52-8.99,6.2-18.29,8.04-27.75l.47-2.61c2.5-11.02,8.32-21.26,17.07-29.14l16.93-10.49,27.22-16.85L545.08,0Z"/><path class="cls-2" d="M460.36,323.55l-.13.02.05-1.35c0-7.48-2.94-14.24-7.73-19.26-5.08-5.32-12.22-8.64-20.16-8.66-7.95.02-15.08,3.34-20.17,8.66-4.48,4.69-7.35,10.96-7.66,17.89l-.08,1.35.08,1.33v7.48s-.01,21.99-.01,21.99l-.04,42.71v29.78l-.04.27.04.28v3.72l.34-.22c1.88,13.6,13.39,24.11,27.5,24.11s25.79-10.67,27.52-24.4h.24v-2.26l.13-1.22-.13-1.22v-29.02l.23-.12v-44.06s.01-27.79.01-27.79Z"/><path class="cls-2" d="M373.78,364.98v-.56c-.15-15.32-12.61-27.68-27.94-27.7-14.55,0-26.5,11.11-27.86,25.29l-.13,2.68.13,2.68v33.84l-15.9-9.85-52.99,32.82,29.23,18.09,8.01-4.96.61-.37,31.03-19.22v65.56s-.01.07-.01.07l1.45-.9c3.56,11.27,13.99,19.48,26.45,19.48,14.19,0,25.78-10.65,27.52-24.38h.24v-2.26l.13-1.22-.13-1.22v-23.95l.15-.11v-49.25s.04-34.58.04-34.58Z"/><path class="cls-2" d="M546.98,303.75l-.07-.6-.12-1.13v-4.34h-.53c-2.75-12.51-13.86-21.88-27.22-21.9-4.25,0-8.26,1.04-11.87,2.75-7.7,3.63-13.44,10.67-15.34,19.15h-.54v3.43l-.18,2.61.04,1v.09l-.02,39.64v31.89l.17-.11v4.5l-.12,1.17.12,1.19v2.3h.24c1.72,13.73,13.31,24.4,27.51,24.4s25.81-10.67,27.51-24.4h.24v-2.26l.12-1.22-.12-1.2v-40.21l.12-.09v-35.38l.07-1.28Z"/><path class="cls-4" d="M317.95,437.4v-19.66l-31.03,19.22-.61.37c-7.34,5.03-12.15,13.45-12.15,23,0,15.42,12.49,27.92,27.91,27.92,5.89,0,11.34-1.84,15.86-4.94v-32.81s.01-13.09.01-13.09Z"/></g></svg>