<?xml version="1.0" encoding="UTF-8"?><svg id="Calque_2" xmlns="http://www.w3.org/2000/svg" viewBox="0 0 1121.91 1228.95"><defs><style>.cls-1{fill:#ffde59;}.cls-1,.cls-2{stroke-width:0px;}.cls-2{fill:#fff;}</style></defs><g id="Layer_1"><path class="cls-2" d="M558.36,0s87.8,91.14,293.62,117.68c197.01,25.44,256.51-31.82,256.51-31.82,0,0,118.95,706.08-550.13,1094.09C-110.77,791.93,8.18,85.85,8.18,85.85c0,0,59.49,57.26,256.5,31.82C470.54,91.14,558.36,0,558.36,0Z"/><path class="cls-1" d="M495.75,1228.95l-313.39-313.39c-36.83-36.84-36.83-96.56,0-133.39,36.83-36.84,96.56-36.84,133.39,0l180,180,465.14-465.14c36.83-36.84,96.56-36.84,133.39,0,36.84,36.83,36.84,96.56,0,133.39l-598.53,598.54Z"/></g></svg>